<svg xmlns="http://www.w3.org/2000/svg">

    <symbol id="angle-down" viewBox="0 0 30 16">
        <g>
            <path
                d="M29.695.304a1.063 1.063 0 0 0-1.499 0l-13.183 13.17L1.803.304a1.063 1.063 0 0 0-1.498 0 1.055 1.055 0 0 0 0 1.494L14.237 15.69c.207.206.466.31.75.31.258 0 .543-.104.75-.31L29.669 1.798c.44-.412.44-1.082.026-1.494z" />
            <path
                d="M29.695.304a1.063 1.063 0 0 0-1.499 0l-13.183 13.17L1.803.304a1.063 1.063 0 0 0-1.498 0 1.055 1.055 0 0 0 0 1.494L14.237 15.69c.207.206.466.31.75.31.258 0 .543-.104.75-.31L29.669 1.798c.44-.412.44-1.082.026-1.494z" />
        </g>
    </symbol>

    <symbol id="arr-left" viewBox="0 0 40 20">
        <g>
            <path
                d="M.274 9.37L9.363.33A.912.912 0 0 1 10.644.23a.9.9 0 0 1 0 1.373L3.   11 9.108h35.981c.502 0 .91.405.91.904 0 .5-.408.904-.91.904H3.11l7.534     7.494a.9.9 0 0 1 .1 1.275.912.912 0 0 1-1.381 0l-9.089-9.04a.9.9 0 0 1  0-1.275z" />
            <path
                d="M.274 9.37L9.363.33A.912.912 0 0 1 10.644.23a.9.9 0 0 1 0 1.373L3.   11 9.108h35.981c.502 0 .91.405.91.904 0 .5-.408.904-.91.904H3.11l7.534     7.494a.9.9 0 0 1 .1 1.275.912.912 0 0 1-1.381 0l-9.089-9.04a.9.9 0 0 1  0-1.275z" />
        </g>
    </symbol>

    <symbol id="arr-right" viewBox="0 0 40 20">
        <g>
            <path
                d="M39.726 9.352L30.637.269a.91.91 0 1 0-1.281 1.28l7.534 7.54H.909a.908.908 0 1 0 0 1.815H36.89l-7.534 7.53a.908.908 0 1 0 1.281 1.28l9.089-9.082a.907.907 0 0 0 0-1.28z" />
            <path
                d="M39.726 9.352L30.637.269a.91.91 0 1 0-1.281 1.28l7.534 7.54H.909a.908.908 0 1 0 0 1.815H36.89l-7.534 7.53a.908.908 0 1 0 1.281 1.28l9.089-9.082a.907.907 0 0 0 0-1.28z" />
        </g>
    </symbol>

    <symbol id="arr-right-intro" viewBox="0 0 20 10">
        <g>
            <path
                d="M19.863 4.661L15.319.134a.455.455 0 0 0-.641-.05.451.451 0 0 0 0 .688l3.767 3.758H.455a.453.453 0 1 0 0 .905h17.99l-3.767 3.753a.452.452 0 0 0-.05.639.455.455 0 0 0 .69 0L19.864 5.3a.452.452 0 0 0 0-.639z" />
            <path
                d="M19.863 4.661L15.319.134a.455.455 0 0 0-.641-.05.451.451 0 0 0 0 .688l3.767 3.758H.455a.453.453 0 1 0 0 .905h17.99l-3.767 3.753a.452.452 0 0 0-.05.639.455.455 0 0 0 .69 0L19.864 5.3a.452.452 0 0 0 0-.639z" />
        </g>
    </symbol>

    <symbol id="arr-right-footer" viewBox="0 0 25 13">
        <g>
            <path
                d="M24.828 6.079L19.148.175a.553.553 0 0 0-.8-.064.606.606 0 0 0 0 .896l4.708 4.9H.568a.58.58 0 0 0-.568.59c0 .327.254.59.568.59h22.488l-4.709 4.895a.606.606 0 0 0-.062.832.553.553 0 0 0 .863 0l5.68-5.903a.607.607 0 0 0 0-.832z" />
            <path
                d="M24.828 6.079L19.148.175a.553.553 0 0 0-.8-.064.606.606 0 0 0 0 .896l4.708 4.9H.568a.58.58 0 0 0-.568.59c0 .327.254.59.568.59h22.488l-4.709 4.895a.606.606 0 0 0-.062.832.553.553 0 0 0 .863 0l5.68-5.903a.607.607 0 0 0 0-.832z" />
        </g>
    </symbol>

    <symbol id="cross" viewBox="0 0 50 50">
        <g>
            <polygon points="26,1 24,1 24,24 1,24 1,26 24,26 24,49 26,49 26,26 49,26 49,24 26,24 	" />
        </g>
    </symbol>

    <symbol id="lens" viewBox="0 0 20 20">
        <g>
            <path
                d="M19.844 19.822a.584.584 0 0 1-.42.178.603.603 0 0 1-.422-.178l-4.86-4.86a8.49 8.49 0 0 1-5.59 2.093c-4.7 0-8.527-3.827-8.527-8.528C.025 3.827 3.847 0 8.55 0c4.7 0 8.527 3.824 8.527 8.528 0 2.138-.79 4.094-2.093 5.592l4.86 4.86a.6.6 0 0 1 0 .843zm-11.297-3.96c4.044 0 7.33-3.295 7.33-7.335s-3.286-7.33-7.33-7.33c-4.04 0-7.33 3.286-7.33 7.33 0 4.045 3.29 7.335 7.33 7.335z" />
            <path
                d="M19.844 19.822a.584.584 0 0 1-.42.178.603.603 0 0 1-.422-.178l-4.86-4.86a8.49 8.49 0 0 1-5.59 2.093c-4.7 0-8.527-3.827-8.527-8.528C.025 3.827 3.847 0 8.55 0c4.7 0 8.527 3.824 8.527 8.528 0 2.138-.79 4.094-2.093 5.592l4.86 4.86a.6.6 0 0 1 0 .843zm-11.297-3.96c4.044 0 7.33-3.295 7.33-7.335s-3.286-7.33-7.33-7.33c-4.04 0-7.33 3.286-7.33 7.33 0 4.045 3.29 7.335 7.33 7.335z" />
        </g>
    </symbol>

    <symbol id="facebook" viewBox="0 0 11 21">
        <g>
            <path
                d="M10.586.004L7.947-.001c-2.964 0-4.88 2.029-4.88 5.168v2.384H.416A.422.422 0 0 0 0 7.979v3.452c0 .237.186.429.415.429h2.653v8.712c0 .236.185.428.414.428h3.461c.23 0 .415-.192.415-.428V11.86h3.102c.23 0 .415-.192.415-.429V7.98a.434.434 0 0 0-.12-.303.408.408 0 0 0-.294-.125H7.358V5.53c0-.972.225-1.464 1.45-1.464h1.777a.422.422 0 0 0 .415-.43V.433a.422.422 0 0 0-.414-.428z" />
            <path
                d="M10.586.004L7.947-.001c-2.964 0-4.88 2.029-4.88 5.168v2.384H.416A.422.422 0 0 0 0 7.979v3.452c0 .237.186.429.415.429h2.653v8.712c0 .236.185.428.414.428h3.461c.23 0 .415-.192.415-.428V11.86h3.102c.23 0 .415-.192.415-.429V7.98a.434.434 0 0 0-.12-.303.408.408 0 0 0-.294-.125H7.358V5.53c0-.972.225-1.464 1.45-1.464h1.777a.422.422 0 0 0 .415-.43V.433a.422.422 0 0 0-.414-.428z" />
        </g>
    </symbol>

    <symbol id="star" viewBox="0 0 16 15">
        <g>
            <path
                d="M15.292 5.12l-4.407-.41a.762.762 0 0 1-.631-.461L8.676.481c-.253-.622-1.15-.622-1.402 0L5.708 4.249a.745.745 0 0 1-.631.46L.67 5.12a.748.748 0 0 0-.429 1.306l3.32 2.873c.215.187.304.46.24.734l-.997 4.03c-.151.634.543 1.156 1.124.82l3.674-2.126a.773.773 0 0 1 .77 0l3.675 2.126c.58.336 1.275-.174 1.123-.82l-.984-4.03a.737.737 0 0 1 .24-.734l3.32-2.873c.48-.435.202-1.243-.454-1.305z" />
            <path
                d="M15.292 5.12l-4.407-.41a.762.762 0 0 1-.631-.461L8.676.481c-.253-.622-1.15-.622-1.402 0L5.708 4.249a.745.745 0 0 1-.631.46L.67 5.12a.748.748 0 0 0-.429 1.306l3.32 2.873c.215.187.304.46.24.734l-.997 4.03c-.151.634.543 1.156 1.124.82l3.674-2.126a.773.773 0 0 1 .77 0l3.675 2.126c.58.336 1.275-.174 1.123-.82l-.984-4.03a.737.737 0 0 1 .24-.734l3.32-2.873c.48-.435.202-1.243-.454-1.305z" />
        </g>
    </symbol>

    <symbol id="twitter" viewBox="0 0 22 18">
        <g>
            <path
                d="M21.393.332c-.873.52-1.84.899-2.868 1.104A4.484 4.484 0 0 0 15.232 0c-2.493 0-4.514 2.035-4.514 4.544 0 .356.04.703.117 1.035C7.085 5.39 3.758 3.58 1.532.83a4.54 4.54 0 0 0-.61 2.285c0 1.577.798 2.968 2.007 3.783a4.486 4.486 0 0 1-2.044-.571v.057a4.543 4.543 0 0 0 3.62 4.457c-.378.103-.777.16-1.189.16a4.53 4.53 0 0 1-.85-.083 4.524 4.524 0 0 0 4.215 3.157 9.016 9.016 0 0 1-5.604 1.945c-.365 0-.724-.022-1.077-.062A12.719 12.719 0 0 0 6.918 18C15.22 18 19.76 11.074 19.76 5.068l-.015-.59A9.108 9.108 0 0 0 22 2.13a8.977 8.977 0 0 1-2.591.716A4.565 4.565 0 0 0 21.393.332z" />
            <path
                d="M21.393.332c-.873.52-1.84.899-2.868 1.104A4.484 4.484 0 0 0 15.232 0c-2.493 0-4.514 2.035-4.514 4.544 0 .356.04.703.117 1.035C7.085 5.39 3.758 3.58 1.532.83a4.54 4.54 0 0 0-.61 2.285c0 1.577.798 2.968 2.007 3.783a4.486 4.486 0 0 1-2.044-.571v.057a4.543 4.543 0 0 0 3.62 4.457c-.378.103-.777.16-1.189.16a4.53 4.53 0 0 1-.85-.083 4.524 4.524 0 0 0 4.215 3.157 9.016 9.016 0 0 1-5.604 1.945c-.365 0-.724-.022-1.077-.062A12.719 12.719 0 0 0 6.918 18C15.22 18 19.76 11.074 19.76 5.068l-.015-.59A9.108 9.108 0 0 0 22 2.13a8.977 8.977 0 0 1-2.591.716A4.565 4.565 0 0 0 21.393.332z" />
        </g>
    </symbol>

    <symbol id="youtube" viewBox="0 0 27 19">
        <g>
            <path
                d="M27.005 14.94c0 2.242-1.807 4.06-4.035 4.06H4.04C1.81 19 .005 17.182.005 14.94V4.06c0-2.243 1.806-4.06 4.035-4.06h18.93c2.228 0 4.035 1.817 4.035 4.06zm-8.49-5.96l-7.71-5.111v10.222z" />
            <path
                d="M27.005 14.94c0 2.242-1.807 4.06-4.035 4.06H4.04C1.81 19 .005 17.182.005 14.94V4.06c0-2.243 1.806-4.06 4.035-4.06h18.93c2.228 0 4.035 1.817 4.035 4.06zm-8.49-5.96l-7.71-5.111v10.222z" />
        </g>
    </symbol>

</svg>