<svg xmlns="http://www.w3.org/2000/svg" viewBox="0 0 16 15">
    <g>
        <g>
            <path
                d="M15.292 5.12l-4.407-.41a.762.762 0 0 1-.631-.461L8.676.481c-.253-.622-1.15-.622-1.402 0L5.708 4.249a.745.745 0 0 1-.631.46L.67 5.12a.748.748 0 0 0-.429 1.306l3.32 2.873c.215.187.304.46.24.734l-.997 4.03c-.151.634.543 1.156 1.124.82l3.674-2.126a.773.773 0 0 1 .77 0l3.675 2.126c.58.336 1.275-.174 1.123-.82l-.984-4.03a.737.737 0 0 1 .24-.734l3.32-2.873c.48-.435.202-1.243-.454-1.305z" />
            <path fill="#aab384"
                d="M15.292 5.12l-4.407-.41a.762.762 0 0 1-.631-.461L8.676.481c-.253-.622-1.15-.622-1.402 0L5.708 4.249a.745.745 0 0 1-.631.46L.67 5.12a.748.748 0 0 0-.429 1.306l3.32 2.873c.215.187.304.46.24.734l-.997 4.03c-.151.634.543 1.156 1.124.82l3.674-2.126a.773.773 0 0 1 .77 0l3.675 2.126c.58.336 1.275-.174 1.123-.82l-.984-4.03a.737.737 0 0 1 .24-.734l3.32-2.873c.48-.435.202-1.243-.454-1.305z" />
        </g>
    </g>
</svg>